<?xml version="1.0" encoding="UTF-8" standalone="no"?>
<!-- Created with Inkscape (http://www.inkscape.org/) -->

<svg
   width="68.253876mm"
   height="74.898972mm"
   viewBox="0 0 68.253876 74.898972"
   version="1.1"
   id="svg1"
   xmlns="http://www.w3.org/2000/svg"
   xmlns:svg="http://www.w3.org/2000/svg">
  <defs
     id="defs1" />
  <g
     id="layer1"
     transform="translate(-95.976516,-113.36707)">
    <g
       id="g548"
       transform="matrix(0.90147815,0,0,0.62333432,-6.4127725,-44.620573)">
			<path
   style="fill:#cb8c3e"
   d="m 130.521,285.07 c 6.348,-7.727 14.441,-14.09 23.265,-17.851 2.178,-0.908 4.375,-1.586 6.558,-2.272 2.382,-0.701 4.721,-1.515 6.98,-2.457 2.21,-0.882 4.364,-1.847 6.426,-2.933 2.088,-1.063 4.162,-2.174 6.153,-3.405 0.426,-0.268 0.86,-0.53 1.3,-0.786 l 1.302,-0.787 c 0.246,-0.296 0.873,-0.467 1.143,-0.572 0.502,-0.194 1.013,-0.361 1.535,-0.46 0.931,-0.178 1.903,-0.119 2.689,0.386 0.876,0.564 1.328,1.636 1.41,2.66 0.122,1.534 -0.826,2.753 -1.852,3.835 -0.509,0.699 -1.036,1.373 -1.493,2.112 -1.211,1.907 -2.34,3.815 -3.278,5.818 -0.914,2.028 -1.712,4.074 -2.314,6.195 -0.595,2.231 -1.025,4.476 -1.276,6.718 -0.198,2.129 -0.347,4.223 -0.676,6.278 -1.276,8.472 -3.867,16.467 -7.39,23.927 -3.67,7.787 -8.618,14.719 -14.328,21.385 -3.025,3.563 -6.262,7.013 -9.688,10.339 -3.389,3.314 -7.013,6.415 -10.729,9.52 -3.567,2.996 -7.206,6.075 -10.565,9.481 -3.351,3.407 -6.452,7.128 -8.78,11.411 -0.018,10e-4 -0.036,0.004 -0.053,10e-4 -0.011,-0.002 -0.054,-0.02 -0.082,-0.036 -0.035,-0.02 -0.063,-0.04 -0.091,-0.065 -0.014,-0.013 -0.025,-0.029 -0.039,-0.043 0.032,-4.885 -0.348,-9.754 -0.906,-14.657 -0.551,-4.901 -1.248,-9.835 -1.717,-14.784 -0.476,-5.142 -0.618,-10.352 -0.192,-15.64 0.446,-5.31 1.408,-10.646 2.846,-15.907 2.726,-9.838 7.204,-19.337 13.842,-27.411 z"
   id="path531" />

			<path
   style="fill:#ffd652"
   d="m 118.418,309.34521 c -3.423,10.45 -4.714,21.295 -3.981,31.758 0.342,4.997 1.014,9.94 1.575,14.845 0.56,4.905 1.006,9.775 0.982,14.69 -0.003,0.777 -0.034,1.555 -0.067,2.332 0.349,-0.694 0.717,-1.377 1.118,-2.037 2.54,-4.175 5.734,-7.776 9.158,-11.082 3.425,-3.308 7.082,-6.321 10.66,-9.331 7.477,-6.306 14.196,-13.122 20.11,-20.427 1.353,-1.712 2.701,-3.41 3.938,-5.169 0.611,-0.885 1.251,-1.746 1.842,-2.638 0.6,-0.885 1.164,-1.794 1.731,-2.695 2.278,-3.601 4.234,-7.386 5.955,-11.338 3.273,-7.653 5.553,-15.878 6.462,-24.526 0.111,-1.106 0.221,-2.21 0.332,-3.313 0.14,-1.09 0.306,-2.181 0.529,-3.274 0.217,-1.058 0.47,-2.117 0.764,-3.17 0.29,-1.057 0.668,-2.062 1.067,-3.081 0.819,-2.043 1.76,-4.075 2.926,-5.955 0.572,-0.951 1.178,-1.889 1.816,-2.808 l 0.484,-0.686 0.516,-0.658 c 0.348,-0.436 0.705,-0.866 1.068,-1.292 0.091,-0.15 0.184,-0.299 0.268,-0.453 0.406,-0.738 0.735,-1.582 0.634,-2.439 -0.098,-0.828 -0.59,-1.808 -1.311,-2.242 -0.604,-0.363 -1.359,-0.284 -2.035,-0.109 -0.398,0.102 -0.787,0.244 -1.17,0.402 -0.277,0.115 -0.563,0.263 -0.858,0.304 -1.896,1.275 -3.769,2.549 -5.754,3.683 -2.003,1.118 -3.987,2.224 -6.064,3.207 -1.04,0.502 -2.13,0.944 -3.187,1.398 -1.061,0.451 -2.14,0.87 -3.231,1.265 -1.127,0.408 -2.271,0.765 -3.421,1.115 -1.128,0.367 -2.266,0.723 -3.407,1.107 -9.015,3.012 -17.447,8.819 -24.22,16.16 -3.542,3.793 -6.522,8.003 -9.079,12.44 -0.637,1.11 -1.22,2.248 -1.797,3.389 -0.566,1.146 -1.139,2.289 -1.633,3.468 -1.007,2.348 -1.95,4.723 -2.72,7.16 z"
   id="path532" />

			<g
   style="opacity:0.26"
   id="g540"
   transform="translate(0,16.168918)">
				<path
   style="fill:#cb8c3e"
   d="m 184.482,260.319 c -0.543,0.762 -1.055,1.542 -1.539,2.336 -0.525,0.86 -1.015,1.735 -1.475,2.619 -0.505,0.691 -0.946,1.442 -1.398,2.17 -0.446,0.734 -0.879,1.471 -1.299,2.205 -0.416,0.737 -0.833,1.465 -1.205,2.225 -0.369,0.763 -0.721,1.531 -1.055,2.304 -0.334,0.773 -0.648,1.55 -0.942,2.332 -0.147,0.391 -0.288,0.783 -0.425,1.176 -0.128,0.401 -0.249,0.803 -0.366,1.207 -0.47,1.631 -0.842,3.275 -1.189,4.909 -0.336,1.644 -0.608,3.314 -0.951,4.934 l -0.535,2.487 c -0.171,0.837 -0.351,1.669 -0.542,2.493 -0.376,1.656 -0.835,3.253 -1.289,4.883 -0.261,0.896 -0.539,1.786 -0.841,2.663 -0.302,0.877 -0.634,1.738 -0.967,2.607 -0.341,0.863 -0.714,1.709 -1.128,2.533 -0.412,0.825 -0.878,1.618 -1.356,2.415 -0.067,0.108 0.168,0.124 0.221,0.042 3.647,-5.555 5.428,-11.924 6.878,-18.507 0.371,-1.612 0.694,-3.248 1.014,-4.901 0.333,-1.64 0.699,-3.264 1.088,-4.914 0.194,-0.805 0.402,-1.614 0.64,-2.41 0.249,-0.785 0.519,-1.567 0.808,-2.346 0.289,-0.779 0.598,-1.553 0.927,-2.323 0.329,-0.77 0.672,-1.542 1.068,-2.274 0.413,-0.788 0.847,-1.569 1.295,-2.346 -0.282,0.754 -0.541,1.512 -0.779,2.272 -0.24,0.759 -0.461,1.519 -0.641,2.305 -0.372,1.559 -0.68,3.12 -0.952,4.671 -0.09,0.512 -0.173,1.023 -0.249,1.535 l -0.19,1.559 c -0.118,1.031 -0.236,2.063 -0.354,3.093 -0.011,0.091 0.169,0.1 0.182,0.022 l 0.443,-2.676 c 0.154,-0.896 0.307,-1.802 0.501,-2.679 0.372,-1.77 0.776,-3.554 1.225,-5.344 0.343,-1.351 0.767,-2.664 1.217,-3.996 0.228,-0.663 0.469,-1.325 0.724,-1.983 0.256,-0.658 0.52,-1.32 0.829,-1.947 0.976,-1.416 2.01,-2.804 2.964,-4.256 0.1,-0.152 -0.181,-0.216 -0.269,-0.115 -0.34,0.391 -0.671,0.791 -0.998,1.195 0.34,-0.568 0.692,-1.132 1.064,-1.683 0.617,-0.901 1.367,-1.695 2.008,-2.578 0.121,-0.164 -0.192,-0.233 -0.296,-0.133 -0.694,0.664 -1.297,1.449 -1.866,2.219 z"
   id="path533" />

				<path
   style="fill:#cb8c3e"
   d="m 175.601,271.916 -2.068,3.519 c -0.693,1.165 -1.341,2.368 -2.034,3.529 -2.785,4.712 -5.579,9.438 -8.359,14.142 -0.686,1.181 -1.385,2.353 -2.096,3.516 -0.712,1.162 -1.383,2.355 -2.089,3.522 -1.424,2.324 -2.754,4.714 -4.134,7.06 -2.641,4.726 -5.268,9.452 -7.955,14.159 -3.04,5.353 -6.055,10.794 -9.434,15.988 -0.055,0.085 0.097,0.094 0.136,0.034 3.023,-4.647 6.017,-9.251 8.812,-13.993 2.753,-4.672 5.375,-9.408 8.085,-14.087 l 1.015,-1.791 1.045,-1.772 c 0.699,-1.181 1.369,-2.383 2.072,-3.562 1.416,-2.351 2.773,-4.745 4.183,-7.094 2.702,-4.717 5.407,-9.438 8.113,-14.161 0.778,-1.306 1.532,-2.632 2.273,-3.973 0.742,-1.34 1.531,-2.64 2.284,-3.98 0.711,-1.247 1.377,-2.512 2.051,-3.775 0.709,-1.37 1.427,-2.764 2.37,-4.012 0.103,-0.136 -0.178,-0.201 -0.259,-0.1 -0.84,1.038 -1.509,2.185 -2.138,3.347 l -0.934,1.744 c -0.307,0.581 -0.606,1.173 -0.939,1.74 z"
   id="path534" />

				<path
   style="fill:#cb8c3e"
   d="m 169.672,275.045 c -0.706,0.858 -1.427,1.703 -2.153,2.544 -0.361,0.422 -0.732,0.836 -1.087,1.263 l -1.053,1.292 c -0.088,0.108 0.158,0.144 0.226,0.062 l 1.077,-1.285 1.115,-1.253 c 0.744,-0.834 1.485,-1.671 2.213,-2.518 0.36,-0.418 0.723,-0.839 1.087,-1.262 0.372,-0.415 0.741,-0.836 1.099,-1.265 0.716,-0.858 1.391,-1.749 1.971,-2.695 0.106,-0.173 -0.214,-0.218 -0.306,-0.105 -1.398,1.742 -2.79,3.477 -4.189,5.222 z"
   id="path535" />

				<path
   style="fill:#cb8c3e"
   d="m 131.986,302.616 c -0.576,1.336 -1.123,2.68 -1.662,4.026 -0.524,1.353 -1.059,2.698 -1.658,4.018 -0.042,0.093 0.129,0.083 0.162,0.011 0.53,-1.171 1.044,-2.351 1.559,-3.532 0.512,-1.183 1.069,-2.344 1.62,-3.51 1.093,-2.336 2.343,-4.6 3.78,-6.762 0.718,-1.103 1.53,-2.146 2.335,-3.186 0.814,-1.036 1.628,-2.066 2.464,-3.081 0.812,-0.968 1.623,-1.932 2.447,-2.882 0.82,-0.952 1.654,-1.889 2.548,-2.78 1.782,-1.802 3.577,-3.569 5.495,-5.224 0.947,-0.835 1.898,-1.659 2.851,-2.473 0.967,-0.804 1.958,-1.583 2.936,-2.361 0.973,-0.765 1.939,-1.524 2.938,-2.246 1.009,-0.715 2.022,-1.415 3.035,-2.107 l 1.518,-1.032 0.758,-0.513 0.777,-0.495 3.089,-1.971 1.665,-1.085 c 0.551,-0.365 1.127,-0.707 1.684,-1.064 l 3.344,-2.131 c 1.088,-0.72 2.219,-1.391 3.259,-2.164 1.045,-0.769 2.022,-1.617 2.889,-2.618 0.113,-0.13 -0.163,-0.192 -0.251,-0.105 -0.864,0.858 -1.822,1.618 -2.829,2.318 -0.503,0.35 -1.019,0.685 -1.54,1.009 l -0.786,0.479 c -0.257,0.162 -0.514,0.324 -0.77,0.486 -0.998,0.625 -2.007,1.243 -3.023,1.859 -1.01,0.621 -2.055,1.214 -3.042,1.863 l -3.11,1.957 c -1.045,0.65 -2.098,1.3 -3.109,1.992 -1.022,0.683 -2.045,1.375 -3.065,2.081 -0.508,0.354 -1.022,0.707 -1.523,1.073 l -1.476,1.128 c -1.971,1.535 -3.921,3.143 -5.791,4.815 -0.948,0.83 -1.896,1.667 -2.838,2.515 -0.921,0.862 -1.826,1.743 -2.726,2.637 -0.893,0.903 -1.806,1.802 -2.637,2.76 -0.843,0.951 -1.668,1.922 -2.474,2.913 l -1.198,1.47 -1.167,1.49 c -0.776,0.996 -1.545,1.999 -2.29,3.023 -0.828,1.163 -1.577,2.367 -2.284,3.594 -0.352,0.615 -0.69,1.237 -1.014,1.867 -0.313,0.638 -0.606,1.285 -0.89,1.938 z"
   id="path536" />

				<path
   style="fill:#cb8c3e"
   d="m 145.786,278.405 c 2.331,-2.322 4.808,-4.466 7.464,-6.353 0.616,-0.447 1.246,-0.856 1.885,-1.237 0.637,-0.383 1.288,-0.735 1.964,-1.056 1.34,-0.65 2.699,-1.233 4.047,-1.838 0.725,-0.321 1.426,-0.661 2.136,-1.011 0.712,-0.349 1.407,-0.727 2.078,-1.159 0.201,-0.129 -0.114,-0.261 -0.246,-0.194 -2.664,1.312 -5.38,2.324 -8.097,3.565 -1.402,0.63 -2.679,1.44 -3.934,2.324 -1.244,0.892 -2.472,1.855 -3.611,2.904 -1.352,1.248 -2.639,2.598 -3.902,3.954 -0.127,0.139 0.123,0.194 0.216,0.101 z"
   id="path537" />

				<path
   style="fill:#cb8c3e"
   d="m 175.993,273.91 c -0.613,1.209 -1.2,2.409 -1.713,3.651 -0.505,1.25 -0.972,2.506 -1.412,3.768 l -0.62,1.78 -0.581,1.801 c -0.385,1.199 -0.773,2.389 -1.171,3.568 -0.411,1.168 -0.769,2.38 -1.18,3.551 -0.401,1.18 -0.831,2.338 -1.272,3.497 -0.98,2.722 -2.107,5.338 -3.375,7.912 -0.073,0.144 0.214,0.164 0.272,0.056 1.171,-2.236 2.331,-4.473 3.279,-6.824 0.46,-1.179 0.945,-2.325 1.375,-3.512 0.439,-1.179 0.839,-2.387 1.245,-3.587 0.418,-1.186 0.824,-2.384 1.218,-3.594 0.392,-1.211 0.77,-2.437 1.177,-3.635 0.822,-2.493 1.644,-5.026 2.752,-7.437 0.619,-1.368 1.239,-2.765 1.914,-4.118 0.676,-1.351 1.351,-2.713 1.994,-4.1 0.025,-0.053 -0.089,-0.064 -0.113,-0.019 -0.623,1.225 -1.262,2.43 -1.908,3.624 l -0.486,0.893 -0.465,0.911 z"
   id="path538" />

				<path
   style="fill:#cb8c3e"
   d="m 151.723,284.427 c 0.841,-0.998 1.763,-1.933 2.662,-2.874 0.912,-0.933 1.817,-1.862 2.766,-2.752 0.957,-0.884 1.923,-1.753 2.894,-2.611 l 1.46,-1.278 c 0.489,-0.422 1.002,-0.825 1.502,-1.234 2.018,-1.627 4.012,-3.245 6.1,-4.763 l 3.077,-2.308 3.121,-2.242 -0.698,0.74 -0.467,0.491 -1.416,1.187 c -0.46,0.409 -0.91,0.827 -1.363,1.244 -0.903,0.836 -1.799,1.684 -2.688,2.541 -0.902,0.845 -1.734,1.753 -2.587,2.645 -0.842,0.903 -1.682,1.805 -2.522,2.705 -4.982,5.587 -9.414,11.666 -13.416,17.974 -0.563,0.891 -1.131,1.778 -1.678,2.678 l -1.604,2.721 c -0.529,0.91 -1.078,1.807 -1.59,2.727 l -1.549,2.749 c -0.1,0.176 0.251,0.173 0.33,0.042 0.969,-1.612 1.932,-3.229 2.957,-4.807 1.018,-1.583 1.997,-3.19 3.051,-4.75 l 1.529,-2.323 c 0.507,-0.776 1.017,-1.551 1.555,-2.306 1.065,-1.518 2.113,-3.049 3.209,-4.546 4.369,-5.987 9.135,-11.717 14.467,-16.86 l 0.017,-0.016 c -2.332,2.546 -4.521,5.217 -6.678,7.908 -1.851,2.453 -3.712,4.898 -5.385,7.471 -0.049,0.074 0.104,0.09 0.142,0.033 l 1.159,-1.667 0.588,-0.828 0.615,-0.807 c 0.824,-1.073 1.661,-2.137 2.505,-3.196 0.83,-1.07 1.731,-2.082 2.612,-3.11 0.889,-1.022 1.764,-2.055 2.666,-3.065 l 2.731,-2.962 1.361,-1.484 1.398,-1.45 1.13,-1.188 2.306,-1.912 c 0.791,-0.613 1.592,-1.212 2.39,-1.811 0.145,-0.109 -0.095,-0.21 -0.2,-0.139 -0.83,0.567 -1.659,1.142 -2.473,1.739 0.211,-0.216 0.437,-0.415 0.656,-0.623 1.229,-0.896 2.421,-1.853 3.48,-2.919 0.374,-0.271 0.754,-0.533 1.141,-0.782 0.398,-0.238 0.803,-0.463 1.216,-0.674 0.226,-0.115 -0.105,-0.263 -0.235,-0.226 -0.4,0.115 -0.788,0.269 -1.169,0.444 -0.082,-0.044 -0.215,-0.055 -0.277,-0.005 l -0.703,0.554 c -0.925,0.589 -1.789,1.305 -2.61,2.019 -0.987,0.749 -2.011,1.462 -3.013,2.203 -1.066,0.765 -2.143,1.52 -3.227,2.276 -0.538,0.382 -1.094,0.748 -1.619,1.144 l -1.584,1.186 -3.199,2.429 c -1.051,0.83 -2.072,1.692 -3.105,2.553 l -1.539,1.306 -0.766,0.661 -0.741,0.683 c -0.986,0.914 -1.964,1.844 -2.931,2.79 -1.077,1.029 -2.072,2.127 -3.073,3.227 l -1.485,1.667 c -0.493,0.558 -0.98,1.123 -1.441,1.705 -0.088,0.114 0.168,0.157 0.238,0.076 z"
   id="path539" />

				<path
   style="fill:#cb8c3e"
   d="m 180.379,262.159 -1.239,1.597 -1.185,1.642 -2.367,3.284 c -0.784,1.094 -1.514,2.233 -2.284,3.334 -3.078,4.403 -5.992,8.893 -8.977,13.319 -1.603,2.5 -3.264,4.961 -4.944,7.404 -0.054,0.077 0.114,0.093 0.157,0.034 l 1.173,-1.641 0.585,-0.821 0.605,-0.806 c 0.805,-1.076 1.601,-2.157 2.377,-3.256 0.768,-1.119 1.59,-2.192 2.363,-3.306 l 1.164,-1.667 c 0.384,-0.559 0.766,-1.121 1.17,-1.664 1.583,-2.159 3.074,-4.404 4.659,-6.57 0.78,-1.095 1.544,-2.205 2.31,-3.317 0.791,-1.087 1.573,-2.185 2.347,-3.294 0.43,-0.617 0.854,-1.24 1.273,-1.868 l 1.301,-1.844 c 0.82,-1.167 1.669,-2.372 2.379,-3.624 0.089,-0.156 -0.243,-0.19 -0.324,-0.099 -0.897,1.011 -1.707,2.109 -2.543,3.163 z"
   id="path540" />

			</g>

			<path
   style="opacity:0.6;fill:#ffd652"
   d="m 131.913,308.269 -2.196,1.171 c -1.495,0.794 -2.964,1.612 -4.434,2.468 -0.153,0.089 -0.338,-0.126 -0.224,-0.266 0.506,-0.617 1.027,-1.216 1.544,-1.817 0.907,-1.034 1.86,-2.118 2.673,-3.281 0.829,-1.158 1.493,-2.403 1.841,-3.764 -0.898,0.634 -1.656,1.467 -2.413,2.255 -0.909,0.943 -1.771,1.926 -2.684,2.868 -0.704,0.721 -1.45,1.51 -2.337,1.996 -0.601,0.327 -1.284,0.366 -1.653,-0.296 -0.227,-0.407 -0.292,-0.911 -0.326,-1.377 -0.045,-0.616 -0.015,-1.233 0.034,-1.851 -0.887,1.13 -1.62,2.375 -2.489,3.526 -0.066,0.087 -0.217,0.122 -0.285,0.019 -1.111,-1.679 -2.024,-3.529 -2.753,-5.439 -0.401,-1.044 -0.764,-2.117 -1.082,-3.204 0.857,7.465 1.907,14.779 1.864,22.184 -0.003,0.777 -0.034,1.555 -0.067,2.332 0.349,-0.694 0.717,-1.377 1.118,-2.037 3.763,-6.175 8.933,-11.091 14.205,-15.665 z"
   id="path541" />

			
			<path
   style="opacity:0.57;fill:#ffd652"
   d="m 124.701,294.43896 c 0.577,-0.917 2.271,-3.599 3.517,-2.472 0.606,0.553 0.383,1.759 0.265,2.527 -0.173,1.093 -0.495,2.168 -0.629,3.257 -0.129,0.976 0.003,2.62 0.907,3.142 0.784,0.453 1.821,-0.202 2.521,-0.651 1.686,-1.098 2.922,-2.607 4.167,-4.158 0.642,-0.787 1.31,-1.58 2.089,-2.221 0.509,-0.42 1.358,-0.984 1.986,-0.581 0.651,0.418 0.448,1.631 0.372,2.29 -0.07,0.532 -0.139,1.062 -0.208,1.594 -0.032,0.279 -0.077,0.577 -0.068,0.864 1.087,-0.383 2.021,-1.198 2.824,-2.008 1.002,-1.027 1.928,-2.136 2.873,-3.218 0.74,-0.847 1.522,-1.645 2.327,-2.419 0.76,-0.702 1.733,-1.418 2.789,-1.071 1.244,0.409 1.536,1.755 1.58,2.92 0.038,1.286 0.074,2.585 -0.135,3.863 -0.85,5.229 -3.778,9.791 -6.026,14.503 0.504,-0.44 0.924,-0.981 1.339,-1.484 l 2.035,-2.513 c 0.42,-0.508 0.814,-1.034 1.204,-1.563 0.396,-0.525 0.779,-1.059 1.156,-1.598 0.758,-1.074 1.47,-2.178 2.251,-3.23 0.506,-0.678 1.074,-1.675 1.924,-1.977 0.558,-0.198 1.016,0.06 1.188,0.612 0.452,1.433 -0.267,3.068 -0.747,4.373 -0.32,0.857 -0.665,1.71 -0.894,2.594 -0.172,0.666 -0.293,1.366 -0.141,2.044 2.256,-0.445 3.893,-2.228 5.282,-3.853 1.521,-1.732 2.826,-3.709 4.735,-5.043 0.155,-0.111 0.52,-0.169 0.682,-0.01 0.751,0.736 0.416,1.826 0.103,2.637 -0.365,0.989 -0.892,1.911 -1.361,2.849 -0.381,0.768 -0.78,1.524 -1.182,2.281 -0.392,0.763 -0.798,1.518 -1.221,2.264 -0.422,0.746 -0.864,1.48 -1.319,2.207 -0.443,0.736 -0.904,1.461 -1.387,2.175 -0.456,0.673 -0.932,1.333 -1.427,1.98 -0.481,0.656 -0.979,1.3 -1.495,1.932 -0.516,0.632 -1.049,1.253 -1.597,1.865 -0.541,0.615 -1.086,1.228 -1.65,1.828 -3.773,4.017 -7.979,7.696 -11.905,11.732 -0.426,0.446 -0.842,0.898 -1.255,1.354 -0.653,0.719 -1.351,1.495 -2.13,2.17 -0.777,0.676 -1.615,1.259 -2.58,1.578 -0.248,0.082 -0.743,0.079 -0.634,-0.322 0.548,-2.074 1.906,-3.857 3.147,-5.553 2.376,-3.146 4.562,-6.398 6.923,-9.511 0.437,-0.583 0.879,-1.162 1.307,-1.75 0.433,-0.585 0.863,-1.173 1.253,-1.786 0.588,-0.912 1.277,-2.074 1.362,-3.22 -1.315,0.983 -2.084,2.624 -3.102,3.878 -0.927,1.155 -1.841,2.316 -2.881,3.384 -0.952,0.97 -1.974,1.953 -3.225,2.535 -0.745,0.349 -1.753,0.609 -2.53,0.195 -1.3,-0.691 -1.016,-2.781 -0.837,-3.989 0.16,-1.071 0.428,-2.119 0.72,-3.166 0.299,-1.044 0.618,-2.089 0.973,-3.111 0.302,-0.893 0.598,-1.79 0.867,-2.696 0.085,-0.287 0.18,-0.589 0.252,-0.894 -0.987,0.948 -1.687,2.269 -2.433,3.379 -0.619,0.921 -1.271,1.819 -1.884,2.748 -0.649,0.994 -1.311,1.984 -1.997,2.952 -0.613,0.851 -1.275,1.735 -2.098,2.399 -0.599,0.476 -1.323,0.868 -2.082,0.643 -0.608,-0.18 -0.902,-0.752 -1.009,-1.361 -0.291,-1.781 0.303,-3.799 0.783,-5.536 0.2,-0.698 0.416,-1.391 0.635,-2.085 -0.352,0.584 -0.691,1.177 -1.017,1.777 -1.203,2.286 -2.422,4.565 -3.431,6.948 -0.9,2.047 -1.799,4.35 -3.523,5.847 -0.186,0.159 -0.673,0.408 -0.869,0.129 -0.347,-0.494 -0.633,-1.017 -0.868,-1.578 -0.519,-1.241 -0.813,-2.589 -0.983,-3.974 -0.165,-1.382 -0.185,-2.792 -0.192,-4.169 -0.014,-1.535 0.023,-3.061 0.109,-4.597 0.043,-0.768 0.101,-1.537 0.179,-2.308 0.083,-0.768 0.195,-1.534 0.328,-2.302 0.299,-1.71 0.688,-3.426 1.205,-5.105 0.512,-1.681 1.073,-3.36 1.754,-4.982 0.865,-2.118 1.791,-4.247 3.039,-6.184 z"
   id="path543" />

			<path
   style="opacity:0.57;fill:#ffd652"
   d="m 135.492,315.628 c -0.258,1.055 -0.406,2.12701 -0.646,3.17901 -0.054,0.23 -0.104,0.466 -0.165,0.697 0.474,-0.778 0.915,-1.585 1.312,-2.40201 0.625,-1.257 1.156,-2.56 1.7,-3.853 0.494,-1.203 0.953,-2.423 1.367,-3.661 0.226,-0.67 0.466,-1.338 0.653,-2.022 -0.651,0.681 -1.209,1.458 -1.678,2.275 -0.557,0.952 -1.042,1.946 -1.489,2.952 -0.417,0.917 -0.813,1.857 -1.054,2.835 z"
   id="path544" />

			<path
   style="opacity:0.57;fill:#ffd652"
   d="m 124.411,317.1025 0.219,-0.438 c 0.569,-1.152 1.091,-2.342 1.437,-3.582 0.278,-1.015 0.478,-2.078 0.379,-3.115 -0.301,0.367 -0.569,0.764 -0.806,1.178 -0.585,1.045 -1.004,2.197 -1.223,3.369 -0.157,0.854 -0.214,1.752 -0.006,2.588 z"
   id="path545" />

			<path
   style="opacity:0.57;fill:#ffd652"
   d="m 148.042,310.128 c -0.49,0.396 -0.935,0.845 -1.333,1.337 -1.294,1.623 -2.026,3.582 -2.846,5.477 1.687,-2.06 3.252,-4.319 4.179,-6.814 z"
   id="path546" />

			<path
   style="opacity:0.57;fill:#ffd652"
   d="m 152.279,308.8825 -2.098,2.077 -2.069,2.113 c -1.397,1.407 -2.74,2.855 -4.098,4.316 -1.179,1.269 -2.305,2.578 -3.447,3.895 -1.118,1.328 -2.219,2.67901 -3.291,4.05801 1.084,-0.79 2.036,-1.827 2.893,-2.77401 0.413,-0.456 0.828,-0.908 1.255,-1.354 3.926,-4.036 8.132,-7.715 11.905,-11.732 0.564,-0.6 1.109,-1.213 1.65,-1.828 0.548,-0.611 1.081,-1.232 1.597,-1.865 0.516,-0.632 1.015,-1.276 1.495,-1.932 0.495,-0.647 0.971,-1.306 1.427,-1.98 l 0.097,-0.148 c -0.597,0.6 -1.204,1.193 -1.818,1.783 l -1.821,1.786 -1.849,1.779 c -0.616,0.595 -1.216,1.202 -1.828,1.806 z"
   id="path547" />

			
		</g>
  </g>
</svg>
